HIERARCHY
ROOT Hips
{
	OFFSET 0.027329 -0.436096 0.279869
	CHANNELS 6 Xposition Yposition Zposition Zrotation Yrotation Xrotation 
	JOINT LeftUpLeg
	{
		OFFSET 1.363060 -1.794630 0.000000
		CHANNELS 3 Zrotation Yrotation Xrotation
		JOINT LeftLeg
		{
			OFFSET 2.448070 -6.726130 0.000295
			CHANNELS 3 Zrotation Yrotation Xrotation
			JOINT LeftFoot
			{
				OFFSET 2.562200 -7.039590 0.000036
				CHANNELS 3 Zrotation Yrotation Xrotation
				JOINT LeftToeBase
				{
					OFFSET 0.157640 -0.433110 2.322550
					CHANNELS 3 Zrotation Yrotation Xrotation
				}
			}
		}
	}
	JOINT RightUpLeg
	{
		OFFSET -1.305520 -1.794630 0.000000
		CHANNELS 3 Zrotation Yrotation Xrotation
		JOINT RightLeg
		{
			OFFSET -2.542340 -6.985620 -0.000396
			CHANNELS 3 Zrotation Yrotation Xrotation
			JOINT RightFoot
			{
				OFFSET -2.568260 -7.056230 -0.000045
				CHANNELS 3 Zrotation Yrotation Xrotation
				JOINT RightToeBase
				{
					OFFSET -0.164730 -0.452590 2.363150
					CHANNELS 3 Zrotation Yrotation Xrotation
				}
			}
		}
	}
	JOINT Spine
	{
		OFFSET 0.028270 2.035590 0.000000
		CHANNELS 3 Zrotation Yrotation Xrotation
		JOINT Spine1
		{
			OFFSET 0.056720 2.048850 -0.042750
			CHANNELS 3 Zrotation Yrotation Xrotation
			JOINT Neck1
			{
				OFFSET -0.054170 1.746240 0.172020
				CHANNELS 3 Zrotation Yrotation Xrotation
				JOINT Head
				{
					OFFSET 0.104070 1.761360 -0.123970
					CHANNELS 3 Zrotation Yrotation Xrotation
				}
			}
			JOINT LeftArm
			{
				OFFSET 3.362410 1.200890 -0.311211
				CHANNELS 3 Zrotation Yrotation Xrotation
				JOINT LeftForeArm
				{
					OFFSET 4.983000 0.000197 0.000166
					CHANNELS 3 Zrotation Yrotation Xrotation
					JOINT LeftHand
					{
						OFFSET 3.483560 0.000000 0.000019
						CHANNELS 3 Zrotation Yrotation Xrotation
						JOINT LeftHandIndex1
						{
							OFFSET 0.715260 0.000000 0.000000
							CHANNELS 3 Zrotation Yrotation Xrotation
						}
					}
				}
			}
			JOINT RightArm
			{
				OFFSET -3.136600 1.374050 -0.404651
				CHANNELS 3 Zrotation Yrotation Xrotation
				JOINT RightForeArm
				{
					OFFSET -5.241900 -0.000059 -0.000166
					CHANNELS 3 Zrotation Yrotation Xrotation
					JOINT RightHand
					{
						OFFSET -3.444170 0.000000 -0.000020
						CHANNELS 3 Zrotation Yrotation Xrotation
						JOINT RightHandIndex1
						{
							OFFSET -0.622530 0.000000 0.000000
							CHANNELS 3 Zrotation Yrotation Xrotation
						}
					}
				}
			}
		}
	}
}
MOTION
Frames: 7
Frame Time: 0.016667
-0.018563 16.226753 0.199686 0.868092 -7.713567 41.796376 -21.840360 -11.773926 -70.433262 -2.212318 1.958005 40.244035 2.865503 8.804939 -14.179368 -0.402603 0.000000 -24.565998 14.343344 -2.704207 -15.793428 0.515923 -1.779235 33.417622 -1.629185 -8.635886 1.630072 -1.566301 -0.000001 -53.215900 -10.727781 1.953843 -2.373182 -5.687872 1.007561 0.788841 2.796050 4.769277 4.456686 0.000000 0.000000 -0.000000 -48.657172 14.854938 15.640762 -4.384219 -12.797857 -0.017501 -4.168380 5.348733 -0.190927 -0.135610 -0.063709 0.000001 91.867550 39.456007 32.772825 1.550989 51.981769 0.005755 0.724448 9.580200 0.062674 0.005972 -0.307399 0.000001 
-0.047778 16.095640 0.499085 0.868501 -7.910042 41.793371 -21.840360 -11.773927 -70.433260 -2.212317 1.958005 40.244034 2.865502 8.804939 -14.179368 -0.402604 0.000001 -24.565999 14.343343 -2.704207 -15.793428 0.515923 -1.779234 33.417621 -1.629186 -8.635887 1.630072 -1.566301 0.000000 -53.215900 -10.727781 1.953843 -2.373183 -5.687873 1.007561 0.788841 2.796050 4.769277 4.456687 0.000000 0.000000 0.000000 -48.657174 14.854939 15.640762 -4.384218 -12.797856 -0.017500 -4.168379 5.348733 -0.190928 -0.135610 -0.063710 0.000001 91.867550 39.456007 32.772827 1.550989 51.981769 0.005756 0.724448 9.580200 0.062674 0.005971 -0.307400 0.000001 
-0.081791 15.886246 0.842098 1.418942 -7.404011 41.362670 -22.107862 -13.013096 -72.389173 -1.584390 2.640810 48.673772 3.118640 9.292415 -17.568681 -1.203500 0.000001 -20.648202 13.577103 -4.154408 -16.638649 0.487628 -2.109207 37.622502 -1.601793 -8.242599 -0.800664 -1.113899 0.000002 -52.637103 -11.522600 1.660934 -1.848935 -5.967377 0.853781 0.550725 2.999739 5.638202 4.666643 -0.000000 0.000000 0.000000 -47.858699 13.687323 18.828707 -4.456303 -12.918759 -0.017510 -4.537438 5.147889 -0.200413 -0.138037 -0.062229 0.000000 92.870176 38.233597 31.307931 1.462672 51.178372 0.003578 0.543872 9.375418 0.046634 -0.000882 -0.306083 -0.000002 
-0.114669 15.653097 1.201498 2.047913 -6.885353 40.704681 -22.748382 -13.959942 -73.346958 -1.114901 3.124062 55.796763 3.402532 9.897255 -21.392081 -2.178801 0.000000 -18.506201 12.693146 -5.548255 -17.577744 0.400164 -2.474971 42.017570 -1.673951 -8.521355 -3.215622 -0.773704 0.000001 -51.202599 -12.239810 1.616811 -0.978733 -6.228788 0.810948 0.320263 3.241734 6.584658 5.002230 0.000000 -0.000000 -0.000000 -47.417529 11.207724 20.956399 -4.547533 -11.985797 -0.016193 -4.510284 4.732648 -0.182786 -0.143164 -0.053793 0.000000 93.657036 36.882667 29.074015 1.358162 49.913482 0.000307 0.135119 9.476740 0.012588 -0.007119 -0.305260 -0.000001 
-0.140861 15.430805 1.565949 2.639643 -6.479520 39.899272 -23.706102 -14.442694 -73.282234 -0.820020 3.457215 61.238795 3.712955 10.596573 -25.310681 -3.273401 -0.000001 -18.305501 11.738538 -6.584978 -18.667170 0.245577 -2.860081 46.523644 -1.833458 -9.382128 -5.438364 -0.487799 -0.000000 -48.985897 -12.765569 1.892498 0.126220 -6.434692 0.915390 0.137276 3.428733 7.540451 5.416208 0.000000 -0.000000 0.000000 -47.668329 7.334164 21.303845 -4.611966 -9.991092 -0.013597 -3.538987 4.406028 -0.131639 -0.147513 -0.035535 0.000000 94.088594 35.480588 26.147790 1.237689 47.990811 -0.004741 -0.726634 10.011587 -0.064457 -0.009330 -0.304307 -0.000000 
-0.156958 15.239820 1.932540 3.110208 -6.213821 39.058688 -24.789938 -14.474847 -72.351946 -0.669050 3.672628 65.000893 4.013058 11.303650 -28.914532 -4.377599 -0.000002 -19.488300 10.821957 -7.094477 -20.008523 0.040324 -3.255584 51.050080 -2.042752 -10.560310 -7.395943 -0.205201 0.000001 -46.133300 -12.972585 2.425059 1.279057 -6.564370 1.144442 0.048550 3.487485 8.443506 5.832020 -0.000000 0.000000 0.000000 -48.786647 2.224534 19.417689 -4.566262 -7.291121 -0.010784 -1.037860 4.288791 -0.033586 -0.143058 -0.005928 -0.000001 94.102142 34.067922 22.692580 1.106285 45.257780 -0.011544 -2.152811 10.921738 -0.210800 -0.005517 -0.300745 0.000001 
-0.162978 15.089876 2.301950 3.392057 -6.041396 38.297043 -25.761223 -14.183766 -70.808652 -0.616503 3.784688 67.326772 4.261179 11.921508 -31.890102 -5.362499 -0.000001 -20.994201 10.093785 -7.071009 -21.711925 -0.192241 -3.648061 55.509284 -2.251227 -11.728569 -9.134314 0.102201 0.000001 -42.915104 -12.780741 3.065172 2.264604 -6.627661 1.434871 0.062205 3.407077 9.251097 6.206964 -0.000000 0.000000 0.000000 -50.693271 -3.520462 15.438270 -4.328376 -4.865331 -0.010156 3.247560 4.044387 0.118145 -0.121892 0.029244 0.000001 93.759401 32.607741 18.917445 0.982467 41.681297 -0.018753 -4.041842 11.938868 -0.433640 0.004167 -0.291970 -0.000000 
